<svg width="247" height="115" viewBox="0 0 247 115" fill="none" xmlns="http://www.w3.org/2000/svg">
<path d="M230.584 1.10769C228.892 1.93846 227.538 3.04615 226.523 4.43078C225.508 5.81537 225 7.33845 225 9C225 10.5231 225.508 12.0461 226.523 13.4308C227.538 14.8154 228.892 15.9231 230.584 16.7538C232.277 17.5846 234.138 18 236 18C237.861 18 239.723 17.5846 241.415 16.7538C243.107 15.9231 244.461 14.8154 245.477 13.4308C246.492 12.0461 247 10.5231 247 9C247 7.47693 246.492 5.95385 245.477 4.43078C244.461 3.04615 243.107 1.93846 241.415 1.10769C239.723 0.276922 237.861 0 236 0C234.138 0 232.446 0.415384 230.584 1.10769ZM240.569 2.4923C242.092 3.18461 243.107 4.01538 243.954 5.26154C244.8 6.50769 245.139 7.75385 245.139 9C245.139 10.2462 244.8 11.4923 243.954 12.7385C243.107 13.9846 242.092 14.8154 240.569 15.5077C239.046 16.2 237.523 16.4769 236 16.4769C234.477 16.4769 232.954 16.2 231.431 15.5077C229.908 14.8154 228.892 13.9846 228.046 12.7385C227.2 11.4923 226.861 10.2462 226.861 9C226.861 7.75385 227.2 6.50769 228.046 5.26154C228.892 4.01538 230.077 3.18461 231.431 2.4923C232.954 1.8 234.307 1.52308 236 1.52308C237.523 1.52308 239.046 1.8 240.569 2.4923ZM233.123 13.9846V9.83076H234.307C234.985 9.83076 235.492 9.96924 235.831 10.1077C236.338 10.3846 237.015 11.2154 237.861 12.3231L238.877 13.8461H241.246L239.723 11.9077C239.046 11.0769 238.369 10.3846 238.03 9.96924C237.861 9.83076 237.523 9.55384 237.015 9.4154C238.03 9.4154 238.877 9 239.384 8.5846C240.062 8.03076 240.231 7.47693 240.231 6.78461C240.231 6.23077 240.062 5.81537 239.723 5.40002C239.384 4.98462 238.877 4.7077 238.2 4.43078C237.523 4.2923 236.508 4.15385 235.154 4.15385H231.092V13.8461H233.123V13.9846ZM233.123 5.53846H235.323C236.338 5.53846 236.846 5.53846 237.185 5.67694C237.523 5.81537 237.861 5.95385 238.03 6.23077C238.2 6.50769 238.369 6.64617 238.369 7.06153C238.369 7.47693 238.2 7.89233 237.692 8.16924C237.354 8.44616 236.508 8.5846 235.492 8.5846H233.123V5.53846Z" fill="#5370B3"/>
<path d="M118 8.09436C115.007 5.34831 109.021 2.73956 91.8945 4.66179C81.7517 5.89751 73.7703 8.23164 63.4613 12.7627C36.3583 24.708 11.583 52.4432 21.0608 78.8053C30.0398 103.794 66.4544 104.069 90.8971 97.0665C95.7192 95.6933 100.541 93.9085 105.03 91.8489L102.703 90.6133C81.253 101.735 55.3137 104.069 37.5222 87.4553C18.5667 69.8805 31.5362 42.9692 47.4988 27.7286C58.1405 17.4309 74.602 8.50628 91.2296 6.03484C114.674 2.60225 118 8.09436 118 8.09436Z" fill="#B3B2B2"/>
<path d="M32 32C32 28.5909 35.1818 26 39 26C42.9773 26 46 28.7273 46 32C46 35.4091 42.8182 38 39 38C35.1818 38 32 35.2727 32 32Z" fill="#5370B3"/>
<path d="M181.23 74.9548C181.725 75.6409 182.22 76.3271 182.715 77.0132C180.57 73.5821 180.735 74.1311 183.21 78.523C184.365 80.8565 185.025 83.1896 185.686 85.6602C186.675 89.5031 186.18 93.4831 184.035 97.0518C181.065 101.855 173.97 103.64 168.03 104.189C147.074 106.11 124.137 97.1889 105.822 89.7774C79.5855 79.072 54.9994 64.9355 33.5484 48.4656C24.143 41.1915 15.3976 33.0939 7.47724 24.7217C5.16709 21.9767 5.16709 22.2512 0.216892 16.2123C-1.59819 14.0163 8.13727 29.2509 23.4829 43.6618C47.409 66.0335 77.4406 83.7386 109.287 97.326C122.487 102.953 136.183 107.757 150.539 110.776C160.274 112.835 171.495 114.208 181.23 111.463C204.661 104.738 183.705 77.1507 175.95 66.5825C177.435 68.5041 179.415 72.347 181.23 74.9548Z" fill="#5370B3"/>
<path d="M130 104C130 98.4594 135.574 94 142.5 94C149.426 94 155 98.4594 155 104C155 109.541 149.426 114 142.5 114C135.574 114 130 109.541 130 104Z" fill="#B3B2B2"/>
<path d="M117 76.7141H119.368V87H121.632V76.7141H124V75H117V76.7141Z" fill="#B3B2B2"/>
<path d="M131.2 76.7141H135V75H129V87H135V85.2855H131.2V81.7712H134.22V80.0571H131.2V76.7141Z" fill="#B3B2B2"/>
<path d="M138 87H144V85.2855H140.268V75H138V87Z" fill="#B3B2B2"/>
<path d="M149.2 76.7141H153V75H147V87H153V85.2855H149.2V81.7712H152.22V80.0571H149.2V76.7141Z" fill="#B3B2B2"/>
<path d="M159.981 75H157V87H158.87V78.5143L160.467 87H162.493L163.974 78.3944V87H166V75H163.019L161.558 83.52L159.981 75Z" fill="#B3B2B2"/>
<path d="M174.964 75H172.036L170 87H171.836L172.181 84.8227H174.636L174.982 87H177L174.964 75ZM173.4 77.1255L174.363 83.1942H172.436L173.4 77.1255Z" fill="#B3B2B2"/>
<path d="M181 76.7141H183.368V87H185.632V76.7141H188V75H181V76.7141Z" fill="#B3B2B2"/>
<path d="M191 87H193V75H191V87Z" fill="#B3B2B2"/>
<path d="M202.098 82.4916V84.1678C202.098 85.0057 201.695 85.3075 201.055 85.3075C200.415 85.3075 200.012 85.0057 200.012 84.1678V77.8326C200.012 76.9947 200.415 76.6762 201.055 76.6762C201.695 76.6762 202.098 76.9947 202.098 77.8326V79.0894H204V77.9498C204 76.0727 202.976 75 201 75C199.024 75 198 76.0727 198 77.9498V84.0502C198 85.9273 199.024 87 201 87C202.976 87 204 85.9273 204 84.0502V82.4916H202.098Z" fill="#B3B2B2"/>
<path d="M208.055 77.9498C208.055 81.3018 211.988 81.7542 211.988 84.1678C211.988 85.0057 211.585 85.3075 210.945 85.3075C210.305 85.3075 209.902 85.0057 209.902 84.1678V83.3299H208V84.0502C208 85.9273 209.024 87 211 87C212.976 87 214 85.9273 214 84.0502C214 80.6987 210.067 80.2458 210.067 77.8326C210.067 76.9947 210.433 76.6762 211.073 76.6762C211.714 76.6762 212.079 76.9947 212.079 77.8326V78.3185H213.982V77.9498C213.982 76.0727 212.976 75 211.018 75C209.061 75 208.055 76.0727 208.055 77.9498Z" fill="#B3B2B2"/>
<path d="M60 20H75.9114C80.2657 20 83.6155 20.2748 85.7931 20.8242C88.1377 21.3736 89.8126 22.1978 90.9852 23.2967C92.1577 24.3956 92.9949 25.6319 93.3298 27.1429C93.6651 28.6539 94 30.9891 94 34.011V38.4067C94 41.566 93.6651 43.9013 92.8274 45.4119C91.9898 46.923 90.4829 48.0219 88.4726 48.709C86.2955 49.533 83.448 49.9451 80.0983 49.9451H75.9114V70H60V20ZM75.9114 28.6539V41.2912C76.4137 41.2912 76.7486 41.2912 77.084 41.2912C78.5909 41.2912 79.596 41.0165 80.0983 40.4671C80.6011 39.9176 80.936 38.6814 80.936 36.7583V32.6374C80.936 30.9891 80.6011 29.7528 79.9309 29.3407C79.2611 28.7912 77.9211 28.6539 75.9114 28.6539Z" fill="#5370B3"/>
<path d="M113 20V70H98V20H113Z" fill="#5370B3"/>
<path d="M137.144 20V59.9728H147V70H121V20H137.144Z" fill="#5370B3"/>
<path d="M185 48.2991C185 53.3492 184.836 56.7611 184.507 58.9448C184.178 60.9921 183.356 62.903 181.877 64.6772C180.397 66.4513 178.425 67.6795 175.795 68.635C173.329 69.5905 170.37 70 166.918 70C163.795 70 160.836 69.5905 158.37 68.635C155.74 67.8163 153.767 66.4513 152.288 64.6772C150.808 62.903 149.822 60.9921 149.494 58.9448C149.164 56.8975 149 53.3492 149 48.1627V39.7008C149 34.6509 149.164 31.2388 149.494 29.0551C149.822 27.0079 150.644 25.0971 152.123 23.3228C153.603 21.5485 155.575 20.3202 158.206 19.3648C160.671 18.4095 163.63 18 167.082 18C170.205 18 173.164 18.4095 175.63 19.3648C178.096 20.1837 180.233 21.5485 181.712 23.3228C183.192 25.0971 184.178 27.0079 184.507 29.0551C184.836 31.1023 185 34.6509 185 39.8373V48.2991ZM169.548 32.0577C169.548 29.7375 169.384 28.2362 169.055 27.6903C168.726 27.0079 168.069 26.7349 167.082 26.7349C166.26 26.7349 165.603 27.0079 165.274 27.5538C164.781 28.0997 164.617 29.601 164.617 32.1942V55.3961C164.617 58.2625 164.781 60.0366 165.11 60.7189C165.438 61.4016 166.096 61.6744 167.082 61.6744C168.069 61.6744 168.89 61.2648 169.055 60.4462C169.384 59.6271 169.548 57.8529 169.548 54.8502V32.0577Z" fill="#5370B3"/>
<path d="M222 20V30.0275H212.802V70H197.198V30.0275H188V20H222Z" fill="#5370B3"/>
</svg>
