<svg width="46" height="46" viewBox="0 0 46 46" fill="none" xmlns="http://www.w3.org/2000/svg">
<g clip-path="url(#clip0_1_1787)">
<path d="M23.7492 45.6543C11.512 45.716 1.47329 35.5484 1.75582 23.1388C2.0207 11.3118 11.8299 1.51483 24.0406 1.65605C36.1012 1.79727 46.0604 11.8414 45.7426 24.2509C45.4424 36.025 35.7304 45.7072 23.7492 45.6543ZM4.43105 23.6772C4.52817 34.7364 13.4721 43.2359 24.0494 43.077C34.3089 42.9182 43.0497 34.5687 43.0585 23.6596C43.0585 12.6093 34.044 4.06558 23.4402 4.2421C13.1631 4.4098 4.50168 12.777 4.43105 23.6772Z" fill="white"/>
<path d="M29.4248 33.6374C29.4248 33.4483 29.4248 33.2851 29.4248 33.1132C29.4248 30.8192 29.4338 28.5337 29.4159 26.2397C29.4159 25.8444 29.3802 25.432 29.2819 25.054C28.9603 23.7823 27.8883 23.1465 26.3428 23.2668C25.1993 23.3527 24.172 24.3322 24.0916 25.4664C24.038 26.1537 24.0559 26.8411 24.0469 27.5285C24.038 29.3929 24.0469 31.2488 24.0469 33.1132C24.0469 33.2851 24.0469 33.4483 24.0469 33.646C22.5997 33.646 21.1883 33.646 19.75 33.646C19.75 29.1781 19.75 24.7017 19.75 20.2081C21.1525 20.2081 22.5551 20.2081 24.0112 20.2081C24.0112 20.7322 24.0112 21.2649 24.0112 21.9093C24.1631 21.7375 24.2524 21.6515 24.3149 21.5484C26.2446 18.7646 31.4795 19.0653 33.0339 22.3475C33.4627 23.2582 33.7218 24.2119 33.7307 25.2086C33.7575 27.9666 33.7486 30.7333 33.7486 33.4999C33.7486 33.5428 33.7396 33.5858 33.7218 33.6545C32.3103 33.6374 30.8899 33.6374 29.4248 33.6374Z" fill="white"/>
<path d="M16.75 34.6545C15.3999 34.6545 14.0917 34.6545 12.75 34.6545C12.75 29.9849 12.75 25.3332 12.75 20.6545C14.0833 20.6545 15.3999 20.6545 16.75 20.6545C16.75 25.3062 16.75 29.9579 16.75 34.6545Z" fill="white"/>
<path d="M14.6976 17.6545C13.5468 17.6463 12.742 16.7991 12.7501 15.626C12.7581 14.4529 13.5951 13.6465 14.7942 13.6546C15.937 13.6627 16.7659 14.5181 16.7498 15.6831C16.7498 16.8398 15.8887 17.6626 14.6976 17.6545Z" fill="white"/>
</g>
<defs>
<clipPath id="clip0_1_1787">
<rect width="45" height="45" fill="white" transform="translate(0.75 0.654541)"/>
</clipPath>
</defs>
</svg>
