<svg width="127" height="75" viewBox="0 0 127 75" fill="none" xmlns="http://www.w3.org/2000/svg">
<g clip-path="url(#clip0_1_253)">
<path d="M118.792 0.738463C117.946 1.29231 117.269 2.03077 116.761 2.95385C116.253 3.87692 116 4.8923 116 5.99999C116 7.01536 116.253 8.03078 116.761 8.95387C117.269 9.87689 117.946 10.6154 118.792 11.1692C119.638 11.7231 120.569 12 121.5 12C122.431 12 123.361 11.7231 124.208 11.1692C125.054 10.6154 125.731 9.87689 126.238 8.95387C126.746 8.03078 127 7.01536 127 5.99999C127 4.98461 126.746 3.96923 126.238 2.95385C125.731 2.03077 125.054 1.29231 124.208 0.738463C123.361 0.184615 122.431 0 121.5 0C120.569 0 119.723 0.276922 118.792 0.738463ZM123.784 1.66154C124.546 2.12307 125.054 2.67692 125.477 3.50769C125.9 4.33846 126.069 5.16923 126.069 5.99999C126.069 6.83075 125.9 7.6615 125.477 8.49232C125.054 9.32307 124.546 9.87689 123.784 10.3384C123.023 10.8 122.261 10.9846 121.5 10.9846C120.738 10.9846 119.977 10.8 119.215 10.3384C118.453 9.87689 117.946 9.32307 117.523 8.49232C117.099 7.6615 116.93 6.83075 116.93 5.99999C116.93 5.16923 117.099 4.33846 117.523 3.50769C117.946 2.67692 118.538 2.12307 119.215 1.66154C119.977 1.2 120.653 1.01539 121.5 1.01539C122.261 1.01539 123.023 1.2 123.784 1.66154ZM120.061 9.32307V6.55384H120.653C120.992 6.55384 121.246 6.64615 121.415 6.73848C121.669 6.92309 122.007 7.4769 122.431 8.21538L122.938 9.23074H124.123L123.361 7.93844C123.023 7.38463 122.684 6.92309 122.515 6.64615C122.431 6.55385 122.261 6.36923 122.007 6.27692C122.515 6.27692 122.938 5.99999 123.192 5.72307C123.531 5.35385 123.615 4.98461 123.615 4.52307C123.615 4.15385 123.531 3.87692 123.361 3.6C123.192 3.32307 122.938 3.13846 122.6 2.95385C122.261 2.86154 121.754 2.76923 121.077 2.76923H119.046V9.23074H120.061V9.32307ZM120.061 3.6923H121.161C121.669 3.6923 121.923 3.69231 122.092 3.78462C122.261 3.87692 122.431 3.96923 122.515 4.15385C122.6 4.33846 122.684 4.43076 122.684 4.70769C122.684 4.98461 122.6 5.26154 122.346 5.44615C122.177 5.63076 121.754 5.72307 121.246 5.72307H120.061V3.6923Z" fill="#5370B3"/>
<path d="M60 4.70144C58.4582 2.88961 55.3745 1.16837 46.5518 2.43665C41.3267 3.25198 37.2151 4.79203 31.9043 7.78153C17.9421 15.663 5.17917 33.9625 10.0616 51.3561C14.6872 67.8437 33.4462 68.0248 46.0378 63.4047C48.5219 62.4988 51.0059 61.3211 53.3187 59.9622L52.1195 59.1469C41.0697 66.4847 27.7071 68.0248 18.5417 57.0633C8.77677 45.4676 15.4581 27.7117 23.6812 17.656C29.1633 10.8617 37.6433 4.97321 46.2091 3.34257C58.2868 1.07778 60 4.70144 60 4.70144Z" fill="#979695"/>
<path d="M16 21C16 18.7273 17.5909 17 19.5 17C21.4886 17 23 18.8182 23 21C23 23.2727 21.4091 25 19.5 25C17.5909 25 16 23.1819 16 21Z" fill="#5370B3"/>
<path d="M93.4468 48.8979C93.702 49.3507 93.9573 49.8034 94.2125 50.2562C93.1064 47.9924 93.1915 48.3546 94.4678 51.2524C95.0634 52.7918 95.4031 54.3312 95.7435 55.9612C96.254 58.4968 95.9987 61.1229 94.8932 63.4773C93.3617 66.6469 89.703 67.8243 86.6399 68.1863C75.8346 69.4542 64.0083 63.5679 54.5642 58.6779C41.0362 51.6146 28.359 42.2873 17.2984 31.4207C12.4487 26.6212 7.93935 21.2784 3.85544 15.7545C2.66429 13.9434 2.66429 14.1245 0.111835 10.1401C-0.824064 8.69115 4.19576 18.7428 12.1084 28.2512C24.4452 43.0118 39.9301 54.6935 56.3509 63.6585C63.1575 67.371 70.219 70.5405 77.6214 72.5331C82.6409 73.8916 88.4267 74.7967 93.4468 72.9857C105.528 68.5484 94.7231 50.3468 90.724 43.374C91.4898 44.6418 92.5108 47.1773 93.4468 48.8979Z" fill="#5370B3"/>
<path d="M66 68.4997C66 64.8986 68.8982 62 72.4997 62C76.1012 62 79 64.8986 79 68.4997C79 72.1014 76.1012 75 72.4997 75C68.8982 75 66 72.1014 66 68.4997Z" fill="#979695"/>
<path d="M60 50.1429H61.0145V57H61.9855V50.1429H63V49H60V50.1429Z" fill="#B3B2B2"/>
<path d="M67.0999 50.1429H69V49H66V57H69V55.8571H67.0999V53.5143H68.6103V52.3714H67.0999V50.1429Z" fill="#B3B2B2"/>
<path d="M71 57H74V55.8571H72.1339V49H71V57Z" fill="#B3B2B2"/>
<path d="M77.0997 50.1429H79V49H76V57H79V55.8571H77.0997V53.5143H78.6098V52.3714H77.0997V50.1429Z" fill="#B3B2B2"/>
<path d="M82.6557 49H81V57H82.0393V51.3428L82.9265 57H84.0522L84.8749 51.2628V57H86V49H84.3443L83.5326 54.68L82.6557 49Z" fill="#B3B2B2"/>
<path d="M89.8363 49H88.1637L87 57H88.0492L88.2467 55.5486H89.6493L89.8468 57H91L89.8363 49ZM88.943 50.4171L89.4933 54.4629H88.3921L88.943 50.4171Z" fill="#B3B2B2"/>
<path d="M93 50.1429H94.0151V57H94.9855V50.1429H96V49H93V50.1429Z" fill="#B3B2B2"/>
<path d="M98 57H99V49H98V57Z" fill="#B3B2B2"/>
<path d="M103.049 53.9944V55.1117C103.049 55.6704 102.848 55.8715 102.528 55.8715C102.207 55.8715 102.006 55.6704 102.006 55.1117V50.8883C102.006 50.3296 102.207 50.1173 102.528 50.1173C102.848 50.1173 103.049 50.3296 103.049 50.8883V51.7263H104V50.9665C104 49.7151 103.488 49 102.5 49C101.512 49 101 49.7151 101 50.9665V55.0335C101 56.2849 101.512 57 102.5 57C103.488 57 104 56.2849 104 55.0335V53.9944H103.049Z" fill="#B3B2B2"/>
<path d="M107.028 50.9665C107.028 53.2011 108.994 53.5028 108.994 55.1117C108.994 55.6704 108.793 55.8715 108.473 55.8715C108.152 55.8715 107.951 55.6704 107.951 55.1117V54.5531H107V55.0335C107 56.2849 107.512 57 108.5 57C109.488 57 110 56.2849 110 55.0335C110 52.7989 108.034 52.4972 108.034 50.8883C108.034 50.3296 108.217 50.1173 108.537 50.1173C108.857 50.1173 109.039 50.3296 109.039 50.8883V51.2123H109.991V50.9665C109.991 49.7151 109.488 49 108.509 49C107.531 49 107.028 49.7151 107.028 50.9665Z" fill="#B3B2B2"/>
<path d="M31 13H38.9557C41.133 13 42.8079 13.1813 43.8965 13.544C45.0689 13.9066 45.9064 14.4506 46.4926 15.1758C47.0788 15.9011 47.4975 16.717 47.665 17.7143C47.8325 18.7115 48 20.2528 48 22.2473V25.1483C48 27.2335 47.8325 28.7747 47.4138 29.772C46.9951 30.7693 46.2414 31.4945 45.2364 31.9478C44.1478 32.4918 42.7241 32.7637 41.0492 32.7637H38.9557V46H31V13ZM38.9557 18.7115V27.0522C39.2069 27.0522 39.3743 27.0522 39.5418 27.0522C40.2956 27.0522 40.798 26.8708 41.0492 26.5082C41.3005 26.1456 41.468 25.3297 41.468 24.0604V21.3407C41.468 20.2528 41.3005 19.4368 40.9655 19.1648C40.6305 18.8022 39.9606 18.7115 38.9557 18.7115Z" fill="#5370B3"/>
<path d="M58 13V46H50V13H58Z" fill="#5370B3"/>
<path d="M71.0723 13V39.3819H76V46H63V13H71.0723Z" fill="#5370B3"/>
<path d="M96 31.811C96 35.1129 95.9132 37.3438 95.7397 38.7717C95.5662 40.1102 95.1324 41.3596 94.3515 42.5197C93.5707 43.6798 92.5296 44.4829 91.1414 45.1076C89.84 45.7323 88.2783 46 86.4563 46C84.8078 46 83.2468 45.7323 81.9454 45.1076C80.5572 44.5721 79.5161 43.6798 78.7352 42.5197C77.9544 41.3596 77.4338 40.1102 77.2603 38.7717C77.0868 37.4331 77 35.1129 77 31.7217V26.1889C77 22.8871 77.0868 20.6561 77.2603 19.2283C77.4338 17.8897 77.8676 16.6404 78.6485 15.4803C79.4293 14.3202 80.4704 13.517 81.8586 12.8923C83.16 12.2677 84.7211 12 86.5431 12C88.1915 12 89.7532 12.2677 91.0546 12.8923C92.356 13.4278 93.4839 14.3202 94.2648 15.4803C95.0456 16.6404 95.5662 17.8897 95.7397 19.2283C95.9132 20.5669 96 22.8871 96 26.2782V31.811ZM87.8445 21.1916C87.8445 19.6745 87.7577 18.6929 87.5842 18.3359C87.4107 17.8897 87.0636 17.7113 86.5431 17.7113C86.1093 17.7113 85.7622 17.8897 85.5887 18.2467C85.3284 18.6037 85.2417 19.5853 85.2417 21.2808V36.4514C85.2417 38.3255 85.3284 39.4855 85.5019 39.9317C85.6755 40.3779 86.0225 40.5564 86.5431 40.5564C87.0636 40.5564 87.4974 40.2887 87.5842 39.7533C87.7577 39.2178 87.8445 38.0577 87.8445 36.0945V21.1916Z" fill="#5370B3"/>
<path d="M115 13V19.6182H110.13V46H101.87V19.6182H97V13H115Z" fill="#5370B3"/>
</g>
<defs>
<clipPath id="clip0_1_253">
<rect width="127" height="75" fill="white"/>
</clipPath>
</defs>
</svg>
