<svg width="46" height="46" viewBox="0 0 46 46" fill="none" xmlns="http://www.w3.org/2000/svg">
<g clip-path="url(#clip0_1_1793)">
<path d="M23.7315 45.6542C11.5122 45.7072 1.46482 35.5395 1.75618 23.1211C2.02988 11.3029 11.8212 1.52348 24.0141 1.65587C36.0833 1.78826 46.0689 11.8324 45.7422 24.2596C45.4332 36.0426 35.7213 45.716 23.7315 45.6542ZM4.43136 23.6771C4.52848 34.7186 13.4546 43.2094 23.9964 43.077C34.2645 42.9446 43.0405 34.6039 43.0494 23.6683C43.0582 12.618 34.0526 4.10071 23.4755 4.24193C13.2074 4.38315 4.51083 12.7415 4.43136 23.6771Z" fill="white"/>
<path d="M23.2723 32.6545C20.2873 32.5579 17.3023 32.47 14.3174 32.347C13.6815 32.3207 13.028 32.1976 12.4186 32.0131C10.9703 31.5738 10.3345 30.4227 10.1402 29.052C9.91939 27.5056 9.76926 25.9416 9.75159 24.3776C9.73393 22.2776 9.8664 20.1688 9.98121 18.06C10.0342 17.155 10.2726 16.2587 10.776 15.4855C11.4914 14.3696 12.6129 13.9918 13.867 13.9215C19.6868 13.5876 25.5154 13.57 31.3353 13.8512C31.9799 13.8864 32.6246 13.9303 33.2693 14.0006C34.7176 14.1763 35.7686 14.932 36.166 16.3378C36.4574 17.3834 36.6605 18.4818 36.6959 19.5713C36.7753 21.9349 36.7577 24.3073 36.7047 26.6797C36.6782 27.6638 36.5104 28.6566 36.272 29.6232C35.8745 31.2575 34.7441 32.1537 33.0662 32.2943C31.6267 32.4085 30.1872 32.4876 28.7477 32.514C26.9285 32.5491 25.1004 32.5227 23.2723 32.5227C23.2723 32.5579 23.2723 32.6106 23.2723 32.6545ZM27.7851 22.8487C25.3123 21.5659 22.919 20.3269 20.4993 19.0705C20.4993 21.6186 20.4993 24.0788 20.4993 26.6094C22.9367 25.3529 25.33 24.1228 27.7851 22.8487Z" fill="white"/>
</g>
<defs>
<clipPath id="clip0_1_1793">
<rect width="45" height="45" fill="white" transform="translate(0.75 0.654541)"/>
</clipPath>
</defs>
</svg>
